<svg id="visual" viewBox="0 0 900 600" width="900" height="600" xmlns="http://www.w3.org/2000/svg" xmlns:xlink="http://www.w3.org/1999/xlink" version="1.1"><path d="M0 61L21.5 55C43 49 86 37 128.8 34C171.7 31 214.3 37 257.2 41C300 45 343 47 385.8 51C428.7 55 471.3 61 514.2 63C557 65 600 63 642.8 57C685.7 51 728.3 41 771.2 42C814 43 857 55 878.5 61L900 67L900 0L878.5 0C857 0 814 0 771.2 0C728.3 0 685.7 0 642.8 0C600 0 557 0 514.2 0C471.3 0 428.7 0 385.8 0C343 0 300 0 257.2 0C214.3 0 171.7 0 128.8 0C86 0 43 0 21.5 0L0 0Z" fill="#777777"></path><path d="M0 115L21.5 112C43 109 86 103 128.8 109C171.7 115 214.3 133 257.2 149C300 165 343 179 385.8 176C428.7 173 471.3 153 514.2 154C557 155 600 177 642.8 167C685.7 157 728.3 115 771.2 103C814 91 857 109 878.5 118L900 127L900 65L878.5 59C857 53 814 41 771.2 40C728.3 39 685.7 49 642.8 55C600 61 557 63 514.2 61C471.3 59 428.7 53 385.8 49C343 45 300 43 257.2 39C214.3 35 171.7 29 128.8 32C86 35 43 47 21.5 53L0 59Z" fill="#9b9b9b"></path><path d="M0 301L21.5 294C43 287 86 273 128.8 276C171.7 279 214.3 299 257.2 302C300 305 343 291 385.8 287C428.7 283 471.3 289 514.2 310C557 331 600 367 642.8 350C685.7 333 728.3 263 771.2 236C814 209 857 225 878.5 233L900 241L900 125L878.5 116C857 107 814 89 771.2 101C728.3 113 685.7 155 642.8 165C600 175 557 153 514.2 152C471.3 151 428.7 171 385.8 174C343 177 300 163 257.2 147C214.3 131 171.7 113 128.8 107C86 101 43 107 21.5 110L0 113Z" fill="#b5b5b5"></path><path d="M0 361L21.5 350C43 339 86 317 128.8 321C171.7 325 214.3 355 257.2 359C300 363 343 341 385.8 332C428.7 323 471.3 327 514.2 345C557 363 600 395 642.8 383C685.7 371 728.3 315 771.2 289C814 263 857 267 878.5 269L900 271L900 239L878.5 231C857 223 814 207 771.2 234C728.3 261 685.7 331 642.8 348C600 365 557 329 514.2 308C471.3 287 428.7 281 385.8 285C343 289 300 303 257.2 300C214.3 297 171.7 277 128.8 274C86 271 43 285 21.5 292L0 299Z" fill="#bebebe"></path><path d="M0 403L21.5 398C43 393 86 383 128.8 389C171.7 395 214.3 417 257.2 416C300 415 343 391 385.8 379C428.7 367 471.3 367 514.2 388C557 409 600 451 642.8 440C685.7 429 728.3 365 771.2 334C814 303 857 305 878.5 306L900 307L900 269L878.5 267C857 265 814 261 771.2 287C728.3 313 685.7 369 642.8 381C600 393 557 361 514.2 343C471.3 325 428.7 321 385.8 330C343 339 300 361 257.2 357C214.3 353 171.7 323 128.8 319C86 315 43 337 21.5 348L0 359Z" fill="#b5b5b5"></path><path d="M0 505L21.5 494C43 483 86 461 128.8 460C171.7 459 214.3 479 257.2 473C300 467 343 435 385.8 423C428.7 411 471.3 419 514.2 441C557 463 600 499 642.8 493C685.7 487 728.3 439 771.2 417C814 395 857 399 878.5 401L900 403L900 305L878.5 304C857 303 814 301 771.2 332C728.3 363 685.7 427 642.8 438C600 449 557 407 514.2 386C471.3 365 428.7 365 385.8 377C343 389 300 413 257.2 414C214.3 415 171.7 393 128.8 387C86 381 43 391 21.5 396L0 401Z" fill="#9b9b9b"></path><path d="M0 601L21.5 601C43 601 86 601 128.8 601C171.7 601 214.3 601 257.2 601C300 601 343 601 385.8 601C428.7 601 471.3 601 514.2 601C557 601 600 601 642.8 601C685.7 601 728.3 601 771.2 601C814 601 857 601 878.5 601L900 601L900 401L878.5 399C857 397 814 393 771.2 415C728.3 437 685.7 485 642.8 491C600 497 557 461 514.2 439C471.3 417 428.7 409 385.8 421C343 433 300 465 257.2 471C214.3 477 171.7 457 128.8 458C86 459 43 481 21.5 492L0 503Z" fill="#777777"></path></svg>