<?xml version="1.0" standalone="no"?><svg xmlns="http://www.w3.org/2000/svg" viewBox="0 0 1440 320"><path fill="#a2d9ff" fill-opacity="1" d="M0,128L0,288L96,288L96,128L192,128L192,128L288,128L288,192L384,192L384,64L480,64L480,0L576,0L576,128L672,128L672,96L768,96L768,160L864,160L864,192L960,192L960,256L1056,256L1056,160L1152,160L1152,192L1248,192L1248,96L1344,96L1344,288L1440,288L1440,320L1344,320L1344,320L1248,320L1248,320L1152,320L1152,320L1056,320L1056,320L960,320L960,320L864,320L864,320L768,320L768,320L672,320L672,320L576,320L576,320L480,320L480,320L384,320L384,320L288,320L288,320L192,320L192,320L96,320L96,320L0,320L0,320Z"></path></svg>